<?xml version="1.0" encoding="UTF-8"?>
<svg xmlns="http://www.w3.org/2000/svg" viewBox="0 0 1200 630" width="1200" height="630">
  <defs>
    <linearGradient id="g94004" x1="92.8583650351056%" y1="24.24809625449728%" x2="7.141634964894386%" y2="75.75190374550272%">
      <stop offset="0%" stop-color="#D97706"/>
      <stop offset="100%" stop-color="#B45309"/>
    </linearGradient>
  </defs>
  <rect width="1200" height="630" fill="url(#g94004)"/>
  <path d="M 1007.2342757321894 281.211657859385 L 1108.172183346469 281.211657859385 L 1108.172183346469 392.4016231484711" fill="none" stroke="rgba(255,255,255,0.07197180384770037)" stroke-width="2"/><circle cx="1007.2342757321894" cy="281.211657859385" r="4" fill="rgba(255,255,255,0.15)"/><path d="M 340.61508944258094 283.18966852268204 L 172.45868798345327 283.18966852268204 L 172.45868798345327 166.4378702430986" fill="none" stroke="rgba(255,255,255,0.08451475465670229)" stroke-width="2"/><circle cx="340.61508944258094" cy="283.18966852268204" r="4" fill="rgba(255,255,255,0.15)"/><path d="M 84.10353811457753 224.00758389150724 L 244.06310030259192 224.00758389150724 L 244.06310030259192 283.6022691219114" fill="none" stroke="rgba(255,255,255,0.09594610465690495)" stroke-width="2"/><circle cx="84.10353811457753" cy="224.00758389150724" r="4" fill="rgba(255,255,255,0.15)"/><path d="M 731.6677469480783 284.3004544079304 L 642.2130660968833 284.3004544079304 L 642.2130660968833 222.585595715791" fill="none" stroke="rgba(255,255,255,0.09312391323968769)" stroke-width="2"/><circle cx="731.6677469480783" cy="284.3004544079304" r="4" fill="rgba(255,255,255,0.15)"/><path d="M 105.52964584901929 234.44718465209007 L -48.193919798359275 234.44718465209007 L -48.193919798359275 328.17272340878844" fill="none" stroke="rgba(255,255,255,0.10123398898169399)" stroke-width="2"/><circle cx="105.52964584901929" cy="234.44718465209007" r="4" fill="rgba(255,255,255,0.15)"/><text x="630.8713566511869" y="152.10851444862783" font-family="monospace" font-size="120" fill="rgba(255,255,255,0.07)">&lt;/&gt;</text><text x="320.8902305364609" y="452.00909653678536" font-family="monospace" font-size="38.280189148150384" fill="rgba(255,255,255,0.08369448253884912)">1</text><text x="845.3086679801345" y="121.4861890557222" font-family="monospace" font-size="38.463778351433575" fill="rgba(255,255,255,0.07824510723352432)">1</text><text x="649.0451283380389" y="204.5725016668439" font-family="monospace" font-size="29.464916707016528" fill="rgba(255,255,255,0.11867174496874214)">1</text><text x="103.57519831508398" y="512.9776563122869" font-family="monospace" font-size="41.877148658037186" fill="rgba(255,255,255,0.10999928584322334)">1</text><text x="648.4725859388709" y="411.60935072461143" font-family="monospace" font-size="26.15169949270785" fill="rgba(255,255,255,0.061675999742001296)">0</text><text x="571.8176264129579" y="503.9554763864726" font-family="monospace" font-size="32.90052684303373" fill="rgba(255,255,255,0.053788927961140875)">1</text><text x="170.70461004972458" y="190.14984684530646" font-family="monospace" font-size="33.2649272242561" fill="rgba(255,255,255,0.12889651900157334)">1</text><rect x="897.8699801955372" y="374.8770482139662" width="16" height="16" rx="2" fill="rgba(255,255,255,0.1)"/><rect x="917.8699801955372" y="374.8770482139662" width="16" height="16" rx="2" fill="rgba(255,255,255,0.04)"/><rect x="937.8699801955372" y="374.8770482139662" width="16" height="16" rx="2" fill="rgba(255,255,255,0.04)"/><rect x="957.8699801955372" y="374.8770482139662" width="16" height="16" rx="2" fill="rgba(255,255,255,0.1)"/><rect x="977.8699801955372" y="374.8770482139662" width="16" height="16" rx="2" fill="rgba(255,255,255,0.04)"/><rect x="897.8699801955372" y="394.8770482139662" width="16" height="16" rx="2" fill="rgba(255,255,255,0.04)"/><rect x="917.8699801955372" y="394.8770482139662" width="16" height="16" rx="2" fill="rgba(255,255,255,0.04)"/><rect x="937.8699801955372" y="394.8770482139662" width="16" height="16" rx="2" fill="rgba(255,255,255,0.1)"/><rect x="957.8699801955372" y="394.8770482139662" width="16" height="16" rx="2" fill="rgba(255,255,255,0.1)"/><rect x="977.8699801955372" y="394.8770482139662" width="16" height="16" rx="2" fill="rgba(255,255,255,0.04)"/><rect x="897.8699801955372" y="414.8770482139662" width="16" height="16" rx="2" fill="rgba(255,255,255,0.04)"/><rect x="917.8699801955372" y="414.8770482139662" width="16" height="16" rx="2" fill="rgba(255,255,255,0.1)"/><rect x="937.8699801955372" y="414.8770482139662" width="16" height="16" rx="2" fill="rgba(255,255,255,0.04)"/><rect x="957.8699801955372" y="414.8770482139662" width="16" height="16" rx="2" fill="rgba(255,255,255,0.1)"/><rect x="977.8699801955372" y="414.8770482139662" width="16" height="16" rx="2" fill="rgba(255,255,255,0.1)"/>
  <circle cx="729.1241624392569" cy="468.62338847480714" r="2.958861742634326" fill="rgba(255,255,255,0.07741841806098819)"/><circle cx="893.9520165324211" cy="225.4155509546399" r="2.8810038515366614" fill="rgba(255,255,255,0.06020611616084352)"/><circle cx="1181.5473016351461" cy="93.71333312010393" r="2.9236517176032066" fill="rgba(255,255,255,0.03436993412440643)"/><circle cx="136.85634629800916" cy="516.7414753558114" r="2.8177726278081536" fill="rgba(255,255,255,0.054663898057769986)"/><circle cx="669.581641908735" cy="200.63918581232429" r="2.8493688930757344" fill="rgba(255,255,255,0.04205586604773998)"/><circle cx="856.6162803210318" cy="100.18547229235992" r="1.8828912526369095" fill="rgba(255,255,255,0.06656876616878435)"/><circle cx="726.2680739164352" cy="579.9946377449669" r="1.717575466260314" fill="rgba(255,255,255,0.053172733967658134)"/><circle cx="544.3719475530088" cy="238.88256136793643" r="1.473889916203916" fill="rgba(255,255,255,0.05879838583758101)"/><circle cx="766.3670260459185" cy="37.519185261335224" r="2.031555098015815" fill="rgba(255,255,255,0.0627564992243424)"/><circle cx="51.786570344120264" cy="453.5755769186653" r="1.7320923181250691" fill="rgba(255,255,255,0.04167395311640575)"/><circle cx="1062.2321206144989" cy="410.23973925272" r="1.2689313748851418" fill="rgba(255,255,255,0.0743708042963408)"/><circle cx="1031.9930923171341" cy="559.192327754572" r="1.1866537067107856" fill="rgba(255,255,255,0.037377730100415646)"/>
  <text x="600" y="335" font-family="system-ui, -apple-system, 'Segoe UI', sans-serif" font-size="50" font-weight="700" fill="rgba(0,0,0,0.15)" text-anchor="middle" letter-spacing="1">AP Computer Science Principles</text>
  <text x="600" y="332" font-family="system-ui, -apple-system, 'Segoe UI', sans-serif" font-size="50" font-weight="700" fill="white" text-anchor="middle" letter-spacing="1">AP Computer Science Principles</text>
  <g transform="translate(1140, 575)">
    <rect x="0" y="0" width="40" height="40" rx="8" fill="rgba(255,255,255,0.15)"/>
    <text x="20" y="29" font-family="sans-serif" font-weight="bold" font-size="24" fill="rgba(255,255,255,0.6)" text-anchor="middle">K</text>
  </g>
</svg>